<svg width="24" height="24" viewBox="0 0 24 24" fill="none" xmlns="http://www.w3.org/2000/svg">
<rect width="24" height="24" fill="#03200E"/>
<path fill-rule="evenodd" clip-rule="evenodd" d="M10.148 18.5535L19.7429 6.04197C19.9326 5.78726 20.0231 5.46102 19.995 5.13377C19.9668 4.80652 19.8222 4.50456 19.5924 4.29314C19.3627 4.08173 19.0662 3.97785 18.767 4.00396C18.4679 4.03007 18.1901 4.18407 17.9938 4.43267L9.24208 15.8424L6.00881 11.9075C5.90963 11.781 5.78837 11.6775 5.65214 11.6031C5.51592 11.5286 5.36749 11.4848 5.21557 11.4741C5.06365 11.4634 4.91131 11.486 4.7675 11.5407C4.6237 11.5955 4.49132 11.6811 4.37816 11.7926C4.265 11.9042 4.17334 12.0394 4.10857 12.1903C4.04379 12.3412 4.0072 12.5047 4.00096 12.6713C3.99472 12.8379 4.01894 13.0042 4.07221 13.1604C4.12548 13.3167 4.20672 13.4596 4.31115 13.5809L8.42323 18.5856C8.5303 18.7159 8.6612 18.8202 8.80743 18.8916C8.95366 18.963 9.11196 18.9999 9.27207 19H9.29134C9.45501 18.9972 9.6162 18.9558 9.76401 18.8788C9.91181 18.8017 10.0428 18.6908 10.148 18.5535Z" fill="white"/>
</svg>
