<?xml version="1.0" ?><svg xmlns="http://www.w3.org/2000/svg" xmlns:xlink="http://www.w3.org/1999/xlink" version="1.1" id="Layer_1" viewBox="0 0 32 32" style="enable-background:new 0 0 32 32;" xml:space="preserve"><style type="text/css">
	.st0{fill:none;stroke:#000000;stroke-linecap:round;stroke-linejoin:round;stroke-miterlimit:10;}
</style><g><path class="st0" d="M23.7,9.3L20,5.6c1-0.8,2.4-0.7,3.4,0.2c0.5,0.5,0.8,1.2,0.8,1.9C24.2,8.2,24,8.8,23.7,9.3z"/><path class="st0" d="M18.4,14.9L5.5,28.6c-1,1-2.6,1-3.6,0s-1.1-2.7-0.1-3.7l12.9-13.7L18.4,14.9z"/><polygon class="st0" points="25.4,11 20.1,16.6 13,9.4 18.3,3.9  "/><g><g><path class="st0" d="M10.6,10L10.6,10c-0.5-0.5-0.5-1.3,0-1.8L17,1.4c0.5-0.5,1.4-0.5,1.9,0l0,0c0.5,0.5,0.5,1.3,0,1.8L12.5,10     C12,10.5,11.1,10.5,10.6,10z"/><path class="st0" d="M19.5,19.1L19.5,19.1c-0.5-0.5-0.5-1.3,0-1.8l6.4-6.8c0.5-0.5,1.4-0.5,1.9,0l0,0c0.5,0.5,0.5,1.3,0,1.8     L21.4,19C20.9,19.6,20.1,19.6,19.5,19.1z"/></g><g><path class="st0" d="M30.1,31H14.7c-0.4,0-0.8-0.4-0.8-0.8v-1.3c0-0.4,0.4-0.8,0.8-0.8h15.4c0.4,0,0.8,0.4,0.8,0.8v1.3     C30.9,30.6,30.6,31,30.1,31z"/><path class="st0" d="M29.4,28.1H15.5v-2c0-0.5,0.4-0.9,0.9-0.9h12.1c0.5,0,0.9,0.4,0.9,0.9V28.1z"/></g></g></g></svg>