<svg data-name="Layer 1" viewBox="0 0 512 512" xmlns="http://www.w3.org/2000/svg"><path d="M322.47 97.68A36.64 36.64 0 1 0 285.83 61a36.68 36.68 0 0 0 36.64 36.68Zm0-63.07A26.44 26.44 0 1 1 296 61a26.46 26.46 0 0 1 26.47-26.39ZM189.53 97.68A36.64 36.64 0 1 0 152.9 61a36.68 36.68 0 0 0 36.63 36.68Zm0-63.07A26.44 26.44 0 1 1 163.1 61a26.46 26.46 0 0 1 26.43-26.39Z" fill="#00004e" class="fill-000000"></path><path d="M473.76 221.74h-13.47a71.69 71.69 0 0 0-49.13-62.91 40.63 40.63 0 1 0-44.46 0 71.9 71.9 0 0 0-44.23 41.53 71.91 71.91 0 0 0-44.24-41.53 40.64 40.64 0 1 0-44.46 0 71.91 71.91 0 0 0-44.24 41.53 71.9 71.9 0 0 0-44.23-41.53 40.64 40.64 0 1 0-44.46 0 71.69 71.69 0 0 0-49.13 62.91H38.24a5.1 5.1 0 0 0 0 10.2h319a51 51 0 0 0 2.16 83.15 88 88 0 0 0-43.88 22.28l-47.94 44.85-56.13-54.87c-10.75-10.51-27.66-10.59-38.87.08a27.75 27.75 0 0 0-.25 39.89l63.87 61.29a46 46 0 0 0 62.24 1.09l28.87-25.84 2 78.76a5.1 5.1 0 0 0 5.1 5h.13a5.1 5.1 0 0 0 5-5.23l-2.28-89.78a5.1 5.1 0 0 0-8.5-3.67l-37.1 33.19a35.75 35.75 0 0 1-48.37-.85L179.46 360a17.4 17.4 0 0 1-5.23-12.64 17.87 17.87 0 0 1 30.12-12.72L264 392.93a5.1 5.1 0 0 0 7 .08l51.5-48.19a77.82 77.82 0 0 1 53.36-21.07h27.34a57.15 57.15 0 0 1 57.09 57.09v101.65a5.1 5.1 0 1 0 10.2 0V380.84a67.4 67.4 0 0 0-54-66 50.95 50.95 0 0 0 1.87-82.94h55.35a5.1 5.1 0 1 0 0-10.2Zm-115.26-96.9a30.44 30.44 0 1 1 30.43 30.44 30.47 30.47 0 0 1-30.43-30.44Zm-132.94 0A30.44 30.44 0 1 1 256 155.28a30.48 30.48 0 0 1-30.44-30.44ZM256 165.48a61.43 61.43 0 0 1 61.14 56.26H194.86A61.43 61.43 0 0 1 256 165.48ZM92.63 124.84a30.44 30.44 0 1 1 30.44 30.44 30.47 30.47 0 0 1-30.44-30.44Zm30.44 40.64a61.42 61.42 0 0 1 61.13 56.26H61.93a61.44 61.44 0 0 1 61.14-56.26Zm305.58 107.27a40.81 40.81 0 1 1-40.81-40.81 40.85 40.85 0 0 1 40.81 40.81Zm-100.85-51a61.35 61.35 0 0 1 122.27 0Z" fill="#00004e" class="fill-000000"></path></svg>