<svg viewBox="0 0 64 64" xmlns="http://www.w3.org/2000/svg"><g data-name="Glyph"><path d="M25 56h-4a1 1 0 0 0 0 2h4a1 1 0 0 0 0-2Z" fill="#00004e" class="fill-000000"></path><circle cx="29" cy="57" r="1" fill="#00004e" class="fill-000000"></circle><path d="M54 30h-6v-2a1 1 0 0 0 1-1v-3a1 1 0 0 0-1-1v-4a1 1 0 0 0 1-1v-6a1 1 0 0 0-1-1V6.11A4.11 4.11 0 0 0 43.89 2H20.11A4.11 4.11 0 0 0 16 6.11V16h-6a3 3 0 0 0-3 2.9v10.48a3 3 0 0 0 3 2.91h6v25.6A4.11 4.11 0 0 0 20.11 62h23.78A4.11 4.11 0 0 0 48 57.89v-11.6h6a3 3 0 0 0 3-2.91V32.9a3 3 0 0 0-3-2.9Zm-42-9h14a1 1 0 0 1 0 2H12a1 1 0 0 1 0-2Zm0 7a1 1 0 0 1 0-2h14a1 1 0 0 1 0 2Zm34 29.89A2.12 2.12 0 0 1 43.89 60H20.11A2.12 2.12 0 0 1 18 57.89v-25.6h.75l6.78 3.59A1 1 0 0 0 27 34.83l-.44-2.54H28a3 3 0 0 0 3-2.91V18.9a3 3 0 0 0-3-2.9H18V6.11A2.12 2.12 0 0 1 20.11 4h23.78A2.12 2.12 0 0 1 46 6.11V30H36a3 3 0 0 0-3 2.9v10.48a3 3 0 0 0 3 2.91h1.45L37 48.83a1 1 0 0 0 1.46 1.05l6.78-3.59H46ZM52 42H38a1 1 0 0 1 0-2h14a1 1 0 0 1 0 2Zm0-5H38a1 1 0 0 1 0-2h14a1 1 0 0 1 0 2Z" fill="#00004e" class="fill-000000"></path><circle cx="32" cy="6" r="1" fill="#00004e" class="fill-000000"></circle></g></svg>